<svg id="Layer_1" data-name="Layer 1" xmlns="http://www.w3.org/2000/svg" viewBox="0 0 597.55 258.39"><title>large black</title><path d="M222.76.56a54.49,54.49,0,0,0-8.74,3c-1.44.59-2.82,1.29-4.21,2s-2.74,1.45-4.1,2.17a107.08,107.08,0,0,0-15.28,10.48c-2.45,1.89-4.69,4-7,6.07-1.11,1.06-2.19,2.17-3.29,3.25s-2.2,2.17-3.21,3.34l-3.11,3.43c-1,1.13-2,2.38-3,3.56s-2,2.38-2.91,3.59l-2.74,3.74a194.31,194.31,0,0,0-18.73,31.87l-2,4.2-1,2.1-.88,2.14-3.5,8.57c-2,5.84-4.27,11.6-6,17.55l-1.35,4.43c-.46,1.47-.91,3-1.27,4.45l-2.32,9c-.83,3-1.39,6-2,9s-1.3,6-1.9,9.07l-1.63,9.13c-.54,3-1.13,6.07-1.53,9.14l-1.4,9.17-.73,4.58-.56,4.61-1.2,9.21c-.19,1.53-.42,3.07-.58,4.61l-.46,4.62-1,9.25-.48,4.63-.37,4.64-.74,9.28c-.25,3.1-.58,6.19-.72,9.3-.39,6.2-.77,12.41-1.29,18.63h-.57c-.33-6.22-.53-12.46-.74-18.7-.13-3.12,0-6.24,0-9.36l.11-9.37q.4-18.74,2.39-37.43l.48-4.67.65-4.65,1.36-9.3c.41-3.1,1.1-6.16,1.68-9.24l1.82-9.22a375.25,375.25,0,0,1,10.07-36.23c1.85-6,4.25-11.8,6.46-17.66l3.75-8.63.94-2.16,1-2.11,2.08-4.22a198.24,198.24,0,0,1,19.78-32l2.9-3.71c1-1.21,2.05-2.38,3.07-3.57s2-2.41,3.12-3.53l3.26-3.39c1.06-1.15,2.21-2.23,3.36-3.29s2.27-2.16,3.44-3.21c2.4-2,4.74-4.11,7.28-6A108.17,108.17,0,0,1,205.13,6.67c1.41-.68,2.8-1.41,4.23-2.06s2.85-1.28,4.32-1.83a55.47,55.47,0,0,1,9-2.78Z"/><path d="M91.16,116.85A192.06,192.06,0,0,1,110.52,74.6a163.84,163.84,0,0,1,13.67-18.79l1.86-2.23c.62-.74,1.3-1.44,2-2.15,1.32-1.42,2.6-2.87,3.95-4.26l4.13-4.07c1.35-1.38,2.85-2.61,4.27-3.92A160.28,160.28,0,0,1,158.7,25.07a170,170,0,0,1,20.14-11.3,164.14,164.14,0,0,1,21.45-8.4A130.94,130.94,0,0,1,222.7.28,131.57,131.57,0,0,0,200.51,6a162.78,162.78,0,0,0-21,9A166.51,166.51,0,0,0,159.9,26.84a158.54,158.54,0,0,0-17.62,14.43c-1.36,1.34-2.79,2.58-4.08,4l-3.92,4.12c-1.28,1.4-2.49,2.86-3.74,4.28-.61.73-1.25,1.42-1.84,2.17L127,58.05a157.72,157.72,0,0,0-12.77,18.76A186.93,186.93,0,0,0,96.6,118.49Z"/><path d="M72.29,67.41A128.2,128.2,0,0,1,86.45,51.34,150.69,150.69,0,0,1,103.08,38a185.72,185.72,0,0,1,18.26-10.83c6.3-3.21,12.76-6.08,19.31-8.67A271.14,271.14,0,0,1,181.06,6.4,288.73,288.73,0,0,1,222.7.28a286.75,286.75,0,0,0-41.37,7.26,271,271,0,0,0-39.8,13.11c-6.41,2.75-12.71,5.75-18.82,9.08A183.2,183.2,0,0,0,105.1,40.85,148.1,148.1,0,0,0,89.3,54.27,122.22,122.22,0,0,0,76.11,70.1Z"/><path d="M49.74,33A129.5,129.5,0,0,1,70,23.65c7-2.57,14-4.77,21.18-6.67s14.36-3.53,21.6-5,14.52-2.7,21.81-3.84c14.6-2.22,29.27-3.93,44-5.22S208,.69,222.7.28C208,.89,193.26,2,178.59,3.5S149.3,6.88,134.76,9.29q-10.89,1.85-21.71,4.12C105.86,15,98.71,16.7,91.62,18.67S77.55,22.93,70.7,25.56A127.58,127.58,0,0,0,50.93,35Z"/><path d="M.11,0a55.78,55.78,0,0,1,9,2.78C10.55,3.33,12,4,13.4,4.61S16.21,6,17.62,6.67A108.26,108.26,0,0,1,33.41,16.83c2.54,1.84,4.87,3.94,7.28,6,1.16,1,2.29,2.14,3.44,3.21s2.3,2.14,3.36,3.29l3.26,3.39c1.1,1.12,2.07,2.35,3.12,3.53s2.06,2.36,3.07,3.57l2.89,3.71a197.59,197.59,0,0,1,19.79,32l2.08,4.22,1,2.11.94,2.16,3.76,8.63c2.21,5.86,4.6,11.67,6.46,17.66A375.25,375.25,0,0,1,104,146.45l1.81,9.22c.59,3.08,1.28,6.14,1.69,9.24l1.36,9.3.64,4.65.49,4.67q2,18.67,2.39,37.43l.11,9.37c0,3.12.08,6.24,0,9.36-.2,6.24-.4,12.48-.74,18.7h-.57c-.52-6.22-.9-12.43-1.29-18.63-.13-3.11-.46-6.2-.71-9.3l-.75-9.28-.36-4.64-.49-4.63-1-9.25-.45-4.62c-.16-1.54-.39-3.08-.58-4.61l-1.2-9.21-.57-4.61L103,175l-1.39-9.17c-.41-3.07-1-6.1-1.53-9.14l-1.64-9.13c-.6-3-1.27-6.05-1.9-9.07s-1.22-6.07-2-9l-2.32-9c-.36-1.5-.82-3-1.27-4.45l-1.35-4.43c-1.7-6-3.93-11.71-6-17.55l-3.5-8.57-.87-2.14-1-2.1-1.95-4.2A194.31,194.31,0,0,0,57.56,45.19l-2.74-3.74c-1-1.21-2-2.39-2.92-3.59s-1.91-2.43-3-3.56l-3.11-3.43c-1-1.17-2.11-2.25-3.21-3.34s-2.18-2.19-3.3-3.25c-2.31-2.05-4.55-4.18-7-6.07A107.64,107.64,0,0,0,17.05,7.73C15.68,7,14.34,6.24,13,5.56s-2.78-1.37-4.21-2A54.83,54.83,0,0,0,0,.56Z"/><path d="M126.15,118.49a186.9,186.9,0,0,0-17.57-41.68A158,158,0,0,0,95.81,58.06l-1.75-2.24c-.59-.75-1.23-1.44-1.84-2.17-1.25-1.42-2.47-2.88-3.74-4.28l-3.93-4.12c-1.28-1.4-2.72-2.64-4.07-4A157.73,157.73,0,0,0,62.85,26.84,165.57,165.57,0,0,0,43.29,15.05a163.51,163.51,0,0,0-21-9A131.33,131.33,0,0,0,.05.28,131.05,131.05,0,0,1,22.47,5.37a164.69,164.69,0,0,1,21.45,8.4,169.86,169.86,0,0,1,20.13,11.3A158.55,158.55,0,0,1,82.4,39.18c1.42,1.31,2.92,2.54,4.28,3.92l4.13,4.07c1.34,1.39,2.63,2.84,4,4.26.65.71,1.32,1.41,1.95,2.15l1.86,2.23A162.57,162.57,0,0,1,112.23,74.6a192.1,192.1,0,0,1,19.37,42.25Z"/><path d="M146.65,70.1a122.89,122.89,0,0,0-13.19-15.83,149.09,149.09,0,0,0-15.8-13.42,184.36,184.36,0,0,0-17.61-11.11c-6.11-3.34-12.41-6.34-18.82-9.09A271,271,0,0,0,41.43,7.54,286.64,286.64,0,0,0,.05.28,288.73,288.73,0,0,1,41.69,6.4,272.8,272.8,0,0,1,82.11,18.49c6.55,2.59,13,5.46,19.31,8.67A187.71,187.71,0,0,1,119.68,38a153.05,153.05,0,0,1,16.63,13.35,128.2,128.2,0,0,1,14.16,16.07Z"/><path d="M171.84,35a128.6,128.6,0,0,0-19.78-9.43c-6.84-2.63-13.83-4.9-20.91-6.89s-14.24-3.7-21.44-5.26S95.27,10.53,88,9.3C73.47,6.88,58.84,5,44.17,3.5S14.79.89.05.28C14.8.69,29.53,1.64,44.23,2.92s29.36,3,44,5.22Q99.13,9.85,110,12c7.24,1.47,14.44,3.12,21.6,5s14.22,4.1,21.18,6.68A129.42,129.42,0,0,1,173,33Z"/><path d="M369.77,38.13h6.74l4.11,14.72a35.2,35.2,0,0,1,1.54,9.55h.31a32,32,0,0,1,1.46-9.55l4.26-14.72h6.55V65.75h-4.61V51.59c0-3.87.12-6.67.39-10h-.27a69.26,69.26,0,0,1-1.9,8.92L384,65.75h-4.22l-4.46-15.5a71.37,71.37,0,0,1-1.74-8.69h-.27c.27,3.36.39,5.45.39,9.79v14.4h-3.94Z"/><path d="M411.8,37.58c7.18,0,11,4.85,11,14.36s-3.86,14.37-11,14.37-11-4.86-11-14.37S404.65,37.58,411.8,37.58Zm0,25c4.18,0,6-3.24,6-10.66s-1.81-10.65-6-10.65-6,3.19-6,10.65S407.65,62.6,411.8,62.6Z"/><path d="M428.89,38.13h6.27l7.5,17.21a37.83,37.83,0,0,1,2.13,7.14h.27a39.65,39.65,0,0,1-.55-6.59V38.13h3.87V65.75H442.1l-7.49-17.12a41,41,0,0,1-2.17-7.14h-.28a40.4,40.4,0,0,1,.59,6.59V65.75h-3.86Z"/><path d="M467.83,58.49h-8.64l-2.13,7.26H453l8.48-27.62h5.17l8.53,27.62H470Zm-.9-3.27-2.09-6.95a29.34,29.34,0,0,1-1.23-6.82h-.27a30.51,30.51,0,0,1-1.15,6.82l-2.05,6.95Z"/><path d="M477.86,57.74l4.54-1.18c.2,3.87,2,6.15,5.52,6.15,2.69,0,4.54-1.26,4.54-3.86,0-2-1.1-3.28-3.24-4.11l-4.73-1.89c-3.31-1.3-5.68-3.63-5.68-7.73,0-4.9,3.63-7.54,9.19-7.54,5.29,0,9,2.45,9.24,7.54l-4.5,1.1c-.24-3.63-2.06-5-4.7-5s-4.3,1.07-4.3,3.47c0,2.17,1.22,3.28,3.39,4.19l4.3,1.73c3.32,1.3,6,3.51,6,7.74,0,5.12-3.63,8-9.59,8C481.65,66.31,478,63.23,477.86,57.74Z"/><path d="M522.45,38.13V65.75h-4.81V53.13H508V65.75H503.2V38.13H508V49.61h9.63V38.13Z"/><path d="M368.62,110.51c0-9.43,3.87-14.37,10.54-14.37,5.25,0,8.6,3,9,8.09l-3.63,1c-.16-4-2.21-6.24-5.41-6.24-4.38,0-6.67,3.83-6.67,11.57s2.29,11.56,6.67,11.56c3.2,0,5.29-2.45,5.44-6.51l3.64.94c-.36,5.41-3.79,8.37-9,8.37C372.06,124.87,368.62,119.94,368.62,110.51Z"/><path d="M403.42,99.15c6,0,9.52,4.41,9.52,12.83s-3.49,12.83-9.52,12.83-9.48-4.41-9.48-12.83S397.43,99.15,403.42,99.15Zm0,23.09c4.2,0,6.13-3.28,6.13-10.26s-1.93-10.26-6.13-10.26-6.1,3.28-6.1,10.26S399.23,122.24,403.42,122.24Z"/><path d="M419.11,99.64h4.05l8.14,16.92a22.9,22.9,0,0,1,1.94,5.57h.21a31.1,31.1,0,0,1-.45-5.5v-17h2.57v24.68h-4.05l-8.15-16.89a22.17,22.17,0,0,1-1.93-5.57h-.22a30.37,30.37,0,0,1,.46,5.5v17h-2.57Z"/><path d="M443,99.64H447l8.14,16.92a23.34,23.34,0,0,1,1.94,5.57h.21a30.3,30.3,0,0,1-.46-5.5v-17h2.57v24.68h-4.05l-8.14-16.89a21.73,21.73,0,0,1-1.94-5.57h-.21a30.37,30.37,0,0,1,.46,5.5v17H443Z"/><path d="M480.44,122v2.36h-13.6V99.64h13.39V102H470v8.36h9.38v2.39H470V122Z"/><path d="M485,112c0-8.42,3.46-12.83,9.41-12.83,4.69,0,7.69,2.64,8,7.23l-3.25.84c-.14-3.56-2-5.57-4.83-5.57-3.91,0-5.95,3.42-5.95,10.33s2,10.33,5.95,10.33c2.86,0,4.73-2.19,4.87-5.82l3.24.85c-.32,4.83-3.38,7.47-8,7.47C488.06,124.81,485,120.4,485,112Z"/><path d="M522.15,102.22h-6.81v22.1h-3.17v-22.1H505.4V99.64h16.75Z"/><path d="M540.51,122v2.36h-13.6V99.64H540.3V102H530.08v8.36h9.37v2.39h-9.37V122Z"/><path d="M563.11,112c0,7.19-2.89,12.34-10.3,12.34h-6.52V99.64h6.52C560.22,99.64,563.11,104.79,563.11,112Zm-3.39,0c0-5.92-1.55-10-7.26-10h-3v20h3C558.17,122,559.72,117.9,559.72,112Z"/><path d="M381.92,163.08h-9.31l-2.49,8.09H367l8.8-27.62h3.52l8.8,27.62h-3.79Zm-.79-2.65-2.64-8.6a22.36,22.36,0,0,1-1.19-5.8h-.23a23.89,23.89,0,0,1-1.07,5.8l-2.6,8.6Z"/><path d="M410,146.49v15.23c0,6.84-2.18,9.94-7.75,9.94-5.89,0-8.36-3.24-8.36-9.94V146.49h3.25v15.58c0,4.8,1.62,6.88,5.14,6.88s5.08-2.22,5.08-6.88V146.49Z"/><path d="M431.13,149.07h-6.8v22.1h-3.17v-22.1h-6.77v-2.58h16.74Z"/><path d="M444.14,146c6,0,9.52,4.41,9.52,12.83s-3.49,12.83-9.52,12.83-9.48-4.41-9.48-12.83S438.15,146,444.14,146Zm0,23.09c4.2,0,6.13-3.28,6.13-10.26s-1.93-10.26-6.13-10.26-6.1,3.28-6.1,10.26S440,169.09,444.14,169.09Z"/><path d="M459.83,146.49h4.05L472,163.41A22.9,22.9,0,0,1,474,169h.21a31,31,0,0,1-.45-5.5v-17h2.57v24.68h-4.05l-8.15-16.89a22.53,22.53,0,0,1-1.94-5.57h-.21a30.37,30.37,0,0,1,.46,5.5v17h-2.57Z"/><path d="M491.94,146c6,0,9.52,4.41,9.52,12.83s-3.49,12.83-9.52,12.83-9.48-4.41-9.48-12.83S486,146,491.94,146Zm0,23.09c4.2,0,6.13-3.28,6.13-10.26s-1.93-10.26-6.13-10.26-6.1,3.28-6.1,10.26S487.75,169.09,491.94,169.09Z"/><path d="M507.63,146.49h4.76l4,13.93c1.41,4.83,1.65,7,1.65,8.6h.21a28.24,28.24,0,0,1,1.55-8.6l4.23-13.93h4.41v24.68h-3.07V156.68c0-3.45.11-5.5.29-7.86h-.22a38,38,0,0,1-1.48,6.52l-4.68,15.83h-2.82L511.65,155a41.38,41.38,0,0,1-1.41-6.16H510c.17,2.43.24,3.48.24,7.47v14.84h-2.64Z"/><path d="M544.11,146c6,0,9.52,4.41,9.52,12.83s-3.49,12.83-9.52,12.83-9.48-4.41-9.48-12.83S538.12,146,544.11,146Zm0,23.09c4.2,0,6.14-3.28,6.14-10.26s-1.94-10.26-6.14-10.26S538,151.85,538,158.83,539.92,169.09,544.11,169.09Z"/><path d="M575.56,146.49v15.23c0,6.84-2.19,9.94-7.76,9.94-5.89,0-8.35-3.24-8.35-9.94V146.49h3.24v15.58c0,4.8,1.62,6.88,5.15,6.88s5.07-2.22,5.07-6.88V146.49Z"/><path d="M581,164.08l3.17-1c.18,3.81,1.84,6,5.4,6,2.82,0,4.72-1.34,4.72-4.09,0-2.19-1.13-3.38-3.24-4.23l-4-1.59c-2.89-1.16-5.14-3.06-5.14-6.8,0-4.23,3.17-6.45,7.68-6.45,4.34,0,7.69,2.08,7.9,6.63l-3.11,1c-.24-3.88-2.18-5.08-4.86-5.08s-4.37,1.17-4.37,3.6,1.27,3.35,3.49,4.23l3.74,1.55c3.45,1.37,5.14,3.52,5.14,6.77,0,4.54-3.06,7-8,7C584.37,171.66,581.13,168.88,581,164.08Z"/><path d="M367,190.4h3.79l4.62,15.74A44.61,44.61,0,0,1,377.3,215h.24a38.73,38.73,0,0,1,1.74-8.88l4.57-15.74h3L378.41,218h-3Z"/><path d="M406.57,215.66V218H393V193.34h13.4v2.37H396.14v8.35h9.37v2.4h-9.37v9.2Z"/><path d="M428.67,193.34V218H425.5V206.17h-10V218h-3.17V193.34h3.17v10.47h10V193.34Z"/><path d="M439.25,193.34V218h-3.17V193.34Z"/><path d="M445.38,205.68c0-8.42,3.46-12.83,9.41-12.83,4.69,0,7.69,2.64,8,7.23l-3.24.84c-.14-3.56-2-5.57-4.83-5.57-3.91,0-6,3.42-6,10.33s2,10.33,6,10.33c2.86,0,4.73-2.19,4.87-5.82l3.24.85c-.32,4.83-3.38,7.47-8,7.47C448.45,218.51,445.38,214.11,445.38,205.68Z"/><path d="M471.61,193.34v22.1h10V218H468.44V193.34Z"/><path d="M499.46,215.66V218H485.85V193.34h13.39v2.37H489v8.35h9.38v2.4H489v9.2Z"/><path d="M279.39,24.77q.9,26.15,1.21,52.28c.14,8.72.17,17.43.26,26.14l.08,26.15-.08,26.14c-.08,8.71-.11,17.43-.26,26.14s-.27,17.43-.45,26.14-.41,17.43-.76,26.14c-.36-8.71-.51-17.42-.77-26.14s-.34-17.43-.45-26.14-.17-17.43-.26-26.14l-.08-26.14.09-26.15c.08-8.71.11-17.42.26-26.14Q278.48,50.91,279.39,24.77Z"/></svg>