<svg id="Layer_1" data-name="Layer 1" xmlns="http://www.w3.org/2000/svg" viewBox="0 0 717.53 379"><defs><style>.cls-1{fill:#0078ff;stroke:#0078ff;stroke-miterlimit:10;stroke-width:0.5px;}.cls-2{fill:#fff;}</style></defs><title>large white on blue</title><rect class="cls-1" x="169.26" y="-169.26" width="379" height="717.53" transform="translate(548.26 -169.26) rotate(90)"/><path class="cls-2" d="M282.48,60.86a54.87,54.87,0,0,0-8.74,3c-1.43.58-2.81,1.29-4.21,2s-2.73,1.45-4.1,2.17a108.48,108.48,0,0,0-15.28,10.48c-2.44,1.89-4.68,4-7,6.07-1.12,1.07-2.2,2.18-3.3,3.26s-2.19,2.17-3.21,3.33l-3.11,3.43c-1,1.13-2,2.38-3,3.56s-2,2.38-2.92,3.59l-2.74,3.74a194.73,194.73,0,0,0-18.73,31.87l-1.95,4.2-1,2.1-.87,2.14-3.5,8.58c-2,5.83-4.27,11.59-6,17.54l-1.35,4.43c-.45,1.48-.91,3-1.27,4.46l-2.32,9c-.82,3-1.38,6-2,9s-1.3,6-1.9,9.07L182.4,217c-.53,3-1.12,6.08-1.53,9.14l-1.39,9.17-.73,4.59-.57,4.6-1.2,9.21c-.19,1.54-.42,3.07-.58,4.61L176,263l-1,9.25-.49,4.62-.36,4.64-.75,9.29c-.25,3.09-.58,6.19-.71,9.29-.39,6.21-.77,12.42-1.29,18.64h-.57c-.34-6.23-.54-12.46-.74-18.71-.13-3.12-.05-6.24-.05-9.36l.11-9.37q.41-18.74,2.39-37.42l.49-4.67.64-4.66,1.36-9.29c.41-3.11,1.1-6.17,1.69-9.25l1.81-9.22a375.25,375.25,0,0,1,10.07-36.23c1.86-6,4.25-11.79,6.46-17.66l3.76-8.63.94-2.15,1-2.12,2.08-4.22a198,198,0,0,1,19.79-32l2.89-3.71c1-1.21,2.05-2.38,3.07-3.57s2-2.4,3.12-3.52l3.26-3.4c1.06-1.15,2.21-2.22,3.36-3.29s2.28-2.16,3.44-3.2c2.41-2,4.74-4.11,7.28-6A109.1,109.1,0,0,1,264.86,67c1.41-.68,2.79-1.41,4.22-2s2.85-1.29,4.32-1.83a54.83,54.83,0,0,1,9-2.79Z"/><path class="cls-2" d="M150.88,177.15a191.81,191.81,0,0,1,19.37-42.24,162.68,162.68,0,0,1,13.66-18.8l1.86-2.23c.63-.74,1.3-1.43,1.95-2.15,1.32-1.42,2.61-2.86,3.95-4.25l4.13-4.08c1.36-1.38,2.86-2.61,4.28-3.92a159.59,159.59,0,0,1,18.35-14.1,167.08,167.08,0,0,1,20.13-11.3A164.74,164.74,0,0,1,260,65.67a133,133,0,0,1,22.42-5.09,131.36,131.36,0,0,0-22.19,5.77,163.45,163.45,0,0,0-21.05,9,165.57,165.57,0,0,0-19.56,11.79A156.72,156.72,0,0,0,202,101.58c-1.35,1.33-2.79,2.58-4.07,4L194,109.67c-1.27,1.4-2.49,2.86-3.74,4.29-.61.72-1.25,1.42-1.84,2.16l-1.75,2.24a158.8,158.8,0,0,0-12.77,18.75,187,187,0,0,0-17.57,41.69Z"/><path class="cls-2" d="M132,127.72a127.59,127.59,0,0,1,14.16-16.08A155,155,0,0,1,162.8,98.29a187.71,187.71,0,0,1,18.26-10.83c6.3-3.21,12.76-6.07,19.31-8.67A274,274,0,0,1,240.79,66.7a290.13,290.13,0,0,1,41.64-6.12,289.41,289.41,0,0,0-41.38,7.26A269.37,269.37,0,0,0,201.26,81c-6.42,2.74-12.72,5.75-18.83,9.08a184.36,184.36,0,0,0-17.61,11.11A149.09,149.09,0,0,0,149,114.57a123.58,123.58,0,0,0-13.19,15.83Z"/><path class="cls-2" d="M109.46,93.28A131.28,131.28,0,0,1,129.7,84c7-2.57,14-4.76,21.18-6.67s14.36-3.53,21.6-5S187,69.58,194.3,68.45c14.59-2.23,29.26-3.94,44-5.23s29.42-2.22,44.17-2.64c-14.74.61-29.45,1.75-44.12,3.22S209,67.19,194.48,69.6q-10.89,1.84-21.7,4.11T151.34,79c-7.08,2-14.07,4.26-20.91,6.89a129,129,0,0,0-19.78,9.43Z"/><path class="cls-2" d="M59.83,60.3a54.53,54.53,0,0,1,9,2.79c1.47.54,2.89,1.2,4.32,1.83s2.82,1.37,4.23,2A109,109,0,0,1,93.13,77.13c2.54,1.85,4.87,3.94,7.28,6,1.17,1,2.29,2.13,3.44,3.2s2.3,2.14,3.36,3.29l3.26,3.4c1.11,1.12,2.08,2.35,3.12,3.52s2.07,2.36,3.07,3.57l2.9,3.71a198.68,198.68,0,0,1,19.78,32l2.08,4.22,1,2.12.94,2.15,3.75,8.63c2.21,5.87,4.61,11.68,6.46,17.66a375.25,375.25,0,0,1,10.07,36.23L165.5,216c.58,3.08,1.27,6.14,1.68,9.25l1.36,9.29.65,4.66.48,4.67q2,18.66,2.39,37.42l.11,9.37c0,3.12.09,6.24,0,9.36-.21,6.25-.41,12.48-.74,18.71h-.57c-.52-6.22-.9-12.43-1.29-18.64-.14-3.1-.47-6.2-.72-9.29l-.74-9.29-.37-4.64-.48-4.62-1-9.25-.46-4.63c-.16-1.54-.39-3.07-.58-4.61l-1.2-9.21-.56-4.6-.73-4.59-1.4-9.17c-.4-3.06-1-6.1-1.53-9.14l-1.63-9.13c-.6-3-1.27-6-1.9-9.07s-1.22-6.06-2.05-9l-2.32-9c-.36-1.51-.81-3-1.27-4.46l-1.35-4.43c-1.69-5.95-3.92-11.71-6-17.54l-3.5-8.58-.88-2.14-1-2.1-2-4.2a194.73,194.73,0,0,0-18.73-31.87l-2.74-3.74c-1-1.21-1.94-2.39-2.91-3.59s-1.92-2.43-3-3.56l-3.11-3.43c-1-1.16-2.11-2.25-3.21-3.33s-2.18-2.19-3.29-3.26c-2.31-2-4.55-4.18-7-6.07A107.91,107.91,0,0,0,76.77,68c-1.36-.72-2.71-1.48-4.1-2.17s-2.77-1.37-4.21-2a54.53,54.53,0,0,0-8.74-3Z"/><path class="cls-2" d="M185.88,178.8a187,187,0,0,0-17.58-41.69,158.42,158.42,0,0,0-12.77-18.75l-1.75-2.24c-.59-.74-1.23-1.44-1.84-2.16-1.25-1.43-2.46-2.89-3.74-4.29l-3.92-4.12c-1.29-1.39-2.72-2.64-4.08-4a157.51,157.51,0,0,0-17.62-14.44A166.51,166.51,0,0,0,103,75.35a162.72,162.72,0,0,0-21-9,131.6,131.6,0,0,0-22.19-5.77,132.86,132.86,0,0,1,22.41,5.09,164.19,164.19,0,0,1,21.45,8.41,167.21,167.21,0,0,1,20.14,11.3,161.34,161.34,0,0,1,18.35,14.1c1.42,1.31,2.92,2.54,4.27,3.92l4.13,4.08c1.35,1.39,2.63,2.83,3.95,4.25.65.72,1.33,1.41,2,2.15l1.86,2.23A162.76,162.76,0,0,1,172,134.91a191.78,191.78,0,0,1,19.36,42.24Z"/><path class="cls-2" d="M206.37,130.4a123.5,123.5,0,0,0-13.18-15.83,147.94,147.94,0,0,0-15.81-13.41A181.27,181.27,0,0,0,159.77,90C153.66,86.71,147.36,83.7,141,81a269.88,269.88,0,0,0-39.8-13.12,289.52,289.52,0,0,0-41.37-7.26,290.13,290.13,0,0,1,41.64,6.12,273.52,273.52,0,0,1,40.41,12.09c6.56,2.6,13,5.46,19.31,8.67A185.81,185.81,0,0,1,179.4,98.3,151.77,151.77,0,0,1,196,111.64a126.8,126.8,0,0,1,14.16,16.08Z"/><path class="cls-2" d="M231.56,95.3a127.58,127.58,0,0,0-19.77-9.43C204.94,83.23,198,81,190.87,79s-14.24-3.7-21.44-5.25S155,70.83,147.73,69.6Q125.92,66,103.89,63.8c-14.67-1.47-29.38-2.61-44.11-3.22C74.52,61,89.25,61.94,104,63.22s29.36,3,44,5.23q11,1.69,21.82,3.84c7.24,1.47,14.45,3.11,21.6,5s14.23,4.1,21.18,6.67a129.5,129.5,0,0,1,20.24,9.33Z"/><path class="cls-2" d="M429.49,98.44h6.75l4.1,14.71a35.2,35.2,0,0,1,1.54,9.55h.32a32,32,0,0,1,1.46-9.55l4.26-14.71h6.55v27.62h-4.62V111.89c0-3.87.12-6.67.4-10H450a71.11,71.11,0,0,1-1.89,8.92l-4.34,15.27h-4.23l-4.46-15.51a71.39,71.39,0,0,1-1.73-8.68H433c.28,3.35.4,5.44.4,9.78v14.41h-3.95Z"/><path class="cls-2" d="M471.52,97.88c7.18,0,11.05,4.86,11.05,14.37s-3.87,14.36-11.05,14.36-11-4.85-11-14.36S464.38,97.88,471.52,97.88Zm0,25c4.18,0,6-3.24,6-10.65s-1.82-10.66-6-10.66-6,3.2-6,10.66S467.38,122.9,471.52,122.9Z"/><path class="cls-2" d="M488.61,98.44h6.27l7.5,17.2a37.83,37.83,0,0,1,2.13,7.14h.28a38.57,38.57,0,0,1-.56-6.59V98.44h3.87v27.62h-6.27l-7.5-17.13a40.74,40.74,0,0,1-2.17-7.14h-.28a39.54,39.54,0,0,1,.6,6.59v17.68h-3.87Z"/><path class="cls-2" d="M527.56,118.8h-8.64l-2.13,7.26h-4.11l8.49-27.62h5.17l8.52,27.62h-5.13Zm-.91-3.28-2.09-6.94a29.48,29.48,0,0,1-1.22-6.83h-.28a30.66,30.66,0,0,1-1.14,6.83l-2.06,6.94Z"/><path class="cls-2" d="M537.58,118.05l4.54-1.19c.2,3.87,2,6.16,5.53,6.16,2.68,0,4.53-1.26,4.53-3.87,0-2-1.1-3.27-3.23-4.1l-4.74-1.9c-3.31-1.3-5.68-3.63-5.68-7.73,0-4.89,3.63-7.54,9.2-7.54,5.28,0,9,2.45,9.23,7.54l-4.5,1.1c-.24-3.63-2.05-5-4.69-5s-4.31,1.07-4.31,3.48c0,2.17,1.23,3.27,3.4,4.18l4.3,1.74c3.31,1.3,6,3.51,6,7.73,0,5.13-3.63,8-9.59,8C541.37,126.61,537.7,123.53,537.58,118.05Z"/><path class="cls-2" d="M582.18,98.44v27.62h-4.82V113.43h-9.63v12.63h-4.81V98.44h4.81v11.48h9.63V98.44Z"/><path class="cls-2" d="M428.35,170.81c0-9.43,3.86-14.36,10.53-14.36,5.25,0,8.6,3,9,8.09l-3.63.94c-.16-4-2.21-6.23-5.41-6.23-4.38,0-6.67,3.83-6.67,11.56s2.29,11.56,6.67,11.56c3.2,0,5.29-2.45,5.45-6.51l3.63.95c-.36,5.4-3.79,8.36-9,8.36C431.78,185.17,428.35,180.24,428.35,170.81Z"/><path class="cls-2" d="M463.15,159.45c6,0,9.51,4.41,9.51,12.83s-3.49,12.83-9.51,12.83-9.49-4.4-9.49-12.83S457.15,159.45,463.15,159.45Zm0,23.09c4.19,0,6.13-3.28,6.13-10.26S467.34,162,463.15,162s-6.1,3.27-6.1,10.25S459,182.54,463.15,182.54Z"/><path class="cls-2" d="M478.83,160h4.06L491,176.87a23.4,23.4,0,0,1,1.94,5.56h.21a30.2,30.2,0,0,1-.46-5.49V160h2.57v24.67h-4.05l-8.14-16.88a21.87,21.87,0,0,1-1.94-5.57H481a30.23,30.23,0,0,1,.46,5.5v17h-2.58Z"/><path class="cls-2" d="M502.7,160h4.05l8.14,16.92a23,23,0,0,1,1.94,5.56H517a31,31,0,0,1-.45-5.49V160h2.57v24.67H515.1L507,167.74a22.68,22.68,0,0,1-1.94-5.57h-.21a30.23,30.23,0,0,1,.46,5.5v17H502.7Z"/><path class="cls-2" d="M540.17,182.26v2.36H526.56V160H540v2.36H529.74v8.35h9.37v2.4h-9.37v9.2Z"/><path class="cls-2" d="M544.72,172.28c0-8.42,3.45-12.83,9.41-12.83,4.69,0,7.68,2.65,8,7.23l-3.24.85c-.14-3.57-2-5.57-4.83-5.57-3.92,0-6,3.42-6,10.32s2,10.33,6,10.33c2.85,0,4.72-2.18,4.86-5.81l3.24.84c-.31,4.83-3.38,7.47-8,7.47C547.78,185.11,544.72,180.71,544.72,172.28Z"/><path class="cls-2" d="M581.87,162.52h-6.8v22.1h-3.18v-22.1h-6.76V160h16.74Z"/><path class="cls-2" d="M600.24,182.26v2.36H586.63V160H600v2.36H589.8v8.35h9.38v2.4H589.8v9.2Z"/><path class="cls-2" d="M622.83,172.28c0,7.19-2.89,12.34-10.29,12.34H606V160h6.52C619.94,160,622.83,165.09,622.83,172.28Zm-3.38,0c0-5.92-1.55-10-7.26-10h-3v19.95h3C617.9,182.26,619.45,178.21,619.45,172.28Z"/><path class="cls-2" d="M441.64,223.38h-9.31l-2.48,8.09h-3.08l8.8-27.62h3.51l8.8,27.62h-3.79Zm-.79-2.64-2.64-8.6a22.4,22.4,0,0,1-1.18-5.8h-.24a23.86,23.86,0,0,1-1.06,5.8l-2.61,8.6Z"/><path class="cls-2" d="M469.71,206.8V222c0,6.84-2.19,9.94-7.76,9.94-5.88,0-8.35-3.24-8.35-9.94V206.8h3.24v15.58c0,4.79,1.62,6.87,5.15,6.87s5.07-2.22,5.07-6.87V206.8Z"/><path class="cls-2" d="M490.86,209.37h-6.81v22.1h-3.17v-22.1h-6.77V206.8h16.75Z"/><path class="cls-2" d="M503.87,206.3c6,0,9.51,4.41,9.51,12.83S509.89,232,503.87,232s-9.49-4.4-9.49-12.83S497.87,206.3,503.87,206.3Zm0,23.09c4.19,0,6.13-3.28,6.13-10.26s-1.94-10.25-6.13-10.25-6.1,3.28-6.1,10.25S499.67,229.39,503.87,229.39Z"/><path class="cls-2" d="M519.55,206.8h4.06l8.14,16.92a23.34,23.34,0,0,1,1.94,5.57h.21a30.37,30.37,0,0,1-.46-5.5v-17H536v24.67h-4l-8.14-16.88a21.87,21.87,0,0,1-1.94-5.57h-.21a31,31,0,0,1,.45,5.5v16.95h-2.57Z"/><path class="cls-2" d="M551.66,206.3c6,0,9.52,4.41,9.52,12.83S557.69,232,551.66,232s-9.48-4.4-9.48-12.83S545.67,206.3,551.66,206.3Zm0,23.09c4.2,0,6.14-3.28,6.14-10.26s-1.94-10.25-6.14-10.25-6.09,3.28-6.09,10.25S547.47,229.39,551.66,229.39Z"/><path class="cls-2" d="M567.35,206.8h4.76l4,13.92c1.41,4.83,1.66,7,1.66,8.6H578a27.91,27.91,0,0,1,1.55-8.6l4.23-13.92h4.4v24.67h-3.06V217c0-3.45.1-5.49.28-7.86h-.21a37.58,37.58,0,0,1-1.48,6.52L579,231.47H576.2l-4.83-16.14a41.52,41.52,0,0,1-1.41-6.17h-.21c.18,2.43.25,3.49.25,7.47v14.84h-2.65Z"/><path class="cls-2" d="M603.84,206.3c6,0,9.51,4.41,9.51,12.83S609.86,232,603.84,232s-9.48-4.4-9.48-12.83S597.84,206.3,603.84,206.3Zm0,23.09c4.19,0,6.13-3.28,6.13-10.26s-1.94-10.25-6.13-10.25-6.1,3.28-6.1,10.25S599.64,229.39,603.84,229.39Z"/><path class="cls-2" d="M635.28,206.8V222c0,6.84-2.19,9.94-7.75,9.94-5.89,0-8.36-3.24-8.36-9.94V206.8h3.24v15.58c0,4.79,1.63,6.87,5.15,6.87s5.08-2.22,5.08-6.87V206.8Z"/><path class="cls-2" d="M640.75,224.39l3.17-1c.17,3.81,1.83,6,5.39,6,2.82,0,4.72-1.34,4.72-4.09,0-2.18-1.12-3.38-3.24-4.23l-4-1.58c-2.89-1.17-5.15-3.07-5.15-6.81,0-4.23,3.17-6.45,7.69-6.45,4.33,0,7.68,2.08,7.89,6.63l-3.1.95c-.25-3.87-2.19-5.07-4.87-5.07s-4.37,1.16-4.37,3.59,1.27,3.35,3.49,4.23l3.74,1.55c3.45,1.38,5.15,3.53,5.15,6.77,0,4.55-3.07,7-8,7C644.09,232,640.85,229.18,640.75,224.39Z"/><path class="cls-2" d="M426.77,250.7h3.79l4.61,15.74a45.07,45.07,0,0,1,1.86,8.88h.23a39.39,39.39,0,0,1,1.74-8.88l4.58-15.74h3l-8.49,27.62h-3Z"/><path class="cls-2" d="M466.29,276v2.36h-13.6V253.65h13.39V256H455.86v8.35h9.38v2.4h-9.38V276Z"/><path class="cls-2" d="M488.4,253.65v24.67h-3.18V266.48h-10v11.84h-3.17V253.65h3.17v10.47h10V253.65Z"/><path class="cls-2" d="M499,253.65v24.67H495.8V253.65Z"/><path class="cls-2" d="M505.11,266c0-8.42,3.45-12.83,9.41-12.83,4.68,0,7.68,2.65,8,7.23l-3.24.85c-.15-3.56-2-5.57-4.83-5.57-3.92,0-6,3.42-6,10.32s2,10.33,6,10.33c2.85,0,4.72-2.18,4.86-5.81l3.24.84c-.31,4.83-3.38,7.48-8,7.48C508.17,278.82,505.11,274.41,505.11,266Z"/><path class="cls-2" d="M531.33,253.65v22.1h10v2.57H528.16V253.65Z"/><path class="cls-2" d="M559.18,276v2.36H545.57V253.65H559V256H548.75v8.35h9.37v2.4h-9.37V276Z"/><path class="cls-2" d="M339.11,85.07q.9,26.15,1.21,52.29c.15,8.71.18,17.42.26,26.14l.09,26.14-.08,26.14c-.09,8.72-.12,17.43-.26,26.14s-.27,17.43-.46,26.14-.41,17.43-.76,26.15c-.35-8.72-.5-17.43-.76-26.15s-.35-17.42-.46-26.14-.17-17.42-.25-26.14l-.09-26.14.09-26.14c.08-8.72.12-17.43.26-26.14Q338.2,111.22,339.11,85.07Z"/></svg>