<svg id="Layer_1" data-name="Layer 1" xmlns="http://www.w3.org/2000/svg" viewBox="0 0 598.09 258.94"><defs><style>.cls-1{fill:#0078ff;}</style></defs><title>large blue</title><path class="cls-1" d="M223.05.86a53.53,53.53,0,0,0-8.74,3c-1.44.58-2.82,1.29-4.21,1.95S207.36,7.3,206,8A107.84,107.84,0,0,0,190.72,18.5c-2.45,1.89-4.69,4-7,6.08-1.11,1.06-2.19,2.17-3.29,3.25s-2.2,2.17-3.21,3.34l-3.11,3.43c-1.05,1.13-2,2.37-3,3.55s-2,2.39-2.91,3.6l-2.74,3.73a194.73,194.73,0,0,0-18.73,31.87l-2,4.2-1,2.1L143,85.8l-3.5,8.57c-2,5.83-4.27,11.59-6,17.54l-1.35,4.43c-.46,1.48-.91,3-1.27,4.46l-2.32,9c-.83,3-1.39,6-2.05,9s-1.3,6-1.9,9.07L123,157c-.54,3.05-1.13,6.08-1.53,9.15l-1.4,9.17-.73,4.58-.56,4.61-1.2,9.2c-.19,1.54-.42,3.07-.58,4.61l-.46,4.63-1,9.25-.48,4.63-.37,4.63-.74,9.29c-.26,3.09-.58,6.19-.72,9.29-.39,6.21-.77,12.42-1.29,18.64h-.57c-.33-6.23-.53-12.46-.74-18.7-.13-3.13,0-6.24,0-9.37l.11-9.36q.41-18.73,2.39-37.43l.48-4.67.65-4.65,1.36-9.3c.41-3.1,1.1-6.17,1.68-9.24l1.82-9.23c2.9-12.19,6-24.36,10.06-36.22,1.86-6,4.26-11.8,6.47-17.67l3.75-8.63.94-2.15,1-2.11,2.08-4.22a198.33,198.33,0,0,1,19.78-32l2.9-3.71c1-1.2,2-2.38,3.07-3.57s2-2.4,3.12-3.52l3.26-3.39c1.06-1.16,2.21-2.23,3.36-3.3s2.27-2.15,3.44-3.2c2.4-2,4.74-4.11,7.28-6A109.86,109.86,0,0,1,205.42,7c1.41-.68,2.8-1.4,4.23-2S212.5,3.62,214,3.08a55.47,55.47,0,0,1,9-2.78Z"/><path class="cls-1" d="M91.45,117.14A192,192,0,0,1,110.81,74.9a162.76,162.76,0,0,1,13.67-18.8l1.86-2.23c.62-.73,1.3-1.43,1.95-2.15,1.32-1.41,2.6-2.86,4-4.25l4.13-4.08c1.35-1.38,2.85-2.61,4.27-3.92A161.34,161.34,0,0,1,159,25.37a167.21,167.21,0,0,1,20.14-11.3,164.19,164.19,0,0,1,21.45-8.41A131.87,131.87,0,0,1,223,.58,130.63,130.63,0,0,0,200.8,6.34a161.4,161.4,0,0,0-21,9,166.44,166.44,0,0,0-19.57,11.78,158.62,158.62,0,0,0-17.62,14.44c-1.36,1.33-2.79,2.58-4.08,4l-3.92,4.11c-1.28,1.41-2.49,2.86-3.74,4.29-.61.72-1.25,1.42-1.85,2.16l-1.75,2.24a158.84,158.84,0,0,0-12.76,18.76,186.74,186.74,0,0,0-17.58,41.68Z"/><path class="cls-1" d="M72.58,67.71A126.8,126.8,0,0,1,86.74,51.63a151.77,151.77,0,0,1,16.63-13.34,187.8,187.8,0,0,1,18.26-10.84c6.3-3.21,12.76-6.07,19.31-8.66A271.14,271.14,0,0,1,181.35,6.7,287.35,287.35,0,0,1,223,.58a288.1,288.1,0,0,0-41.37,7.25A269.88,269.88,0,0,0,141.82,21C135.41,23.69,129.11,26.7,123,30a183.2,183.2,0,0,0-17.61,11.12,148,148,0,0,0-15.8,13.41A123.58,123.58,0,0,0,76.4,70.39Z"/><path class="cls-1" d="M50,33.28A129.5,129.5,0,0,1,70.27,24c7-2.58,14-4.77,21.18-6.67s14.36-3.53,21.6-5,14.52-2.7,21.81-3.84c14.6-2.23,29.27-3.94,44-5.22S208.25,1,223,.58c-14.73.6-29.44,1.74-44.11,3.22s-29.3,3.38-43.83,5.79q-10.89,1.85-21.71,4.12C106.15,15.27,99,17,91.91,19S77.84,23.22,71,25.86a127.53,127.53,0,0,0-19.77,9.42Z"/><path class="cls-1" d="M.39.3a55.59,55.59,0,0,1,9,2.78c1.47.54,2.88,1.21,4.32,1.83S16.5,6.28,17.91,7A110,110,0,0,1,33.7,17.12c2.54,1.85,4.87,3.95,7.28,6,1.16,1.05,2.29,2.14,3.44,3.2s2.3,2.14,3.36,3.3L51,33c1.1,1.12,2.07,2.35,3.12,3.52s2.06,2.37,3.07,3.57l2.89,3.71a197.68,197.68,0,0,1,19.79,32L82,80l1,2.11L84,84.22l3.76,8.63c2.21,5.87,4.6,11.68,6.46,17.67a375.86,375.86,0,0,1,10.07,36.22l1.81,9.23c.59,3.07,1.28,6.14,1.69,9.24l1.36,9.3.64,4.65.49,4.67q2,18.67,2.39,37.43l.11,9.36c0,3.13.08,6.24,0,9.37-.2,6.24-.4,12.47-.74,18.7h-.57c-.52-6.22-.9-12.43-1.29-18.64-.13-3.1-.46-6.2-.71-9.29l-.75-9.29-.36-4.63-.49-4.63-1-9.25-.45-4.63c-.16-1.54-.39-3.07-.58-4.61l-1.2-9.2-.57-4.61-.73-4.58-1.39-9.17c-.41-3.07-1-6.1-1.53-9.15l-1.64-9.13c-.6-3-1.27-6-1.9-9.07s-1.22-6.06-2-9l-2.32-9c-.36-1.51-.82-3-1.27-4.46l-1.35-4.43c-1.7-6-3.93-11.71-6-17.54l-3.5-8.57-.87-2.15-1-2.1-2-4.2A195.44,195.44,0,0,0,57.85,45.48l-2.74-3.73c-1-1.21-2-2.4-2.92-3.6s-1.91-2.42-3-3.55l-3.11-3.43c-1-1.17-2.11-2.26-3.21-3.34s-2.18-2.19-3.3-3.25c-2.31-2-4.55-4.19-7-6.08A108.41,108.41,0,0,0,17.34,8C16,7.3,14.62,6.54,13.24,5.85S10.46,4.48,9,3.9A53.86,53.86,0,0,0,.29.86Z"/><path class="cls-1" d="M126.44,118.79a186.71,186.71,0,0,0-17.57-41.68A158.92,158.92,0,0,0,96.1,58.35l-1.75-2.24c-.59-.74-1.23-1.44-1.84-2.16-1.25-1.43-2.47-2.88-3.74-4.29l-3.93-4.11c-1.28-1.4-2.72-2.65-4.07-4A157.82,157.82,0,0,0,63.14,27.13,166.86,166.86,0,0,0,43.58,15.35a162.12,162.12,0,0,0-21-9A130.39,130.39,0,0,0,.34.58,131.65,131.65,0,0,1,22.75,5.66a164.32,164.32,0,0,1,21.46,8.41,168.46,168.46,0,0,1,20.13,11.3,159.59,159.59,0,0,1,18.35,14.1C84.11,40.78,85.61,42,87,43.39l4.13,4.08c1.34,1.39,2.63,2.84,4,4.25.65.72,1.32,1.42,2,2.15l1.86,2.23a162.68,162.68,0,0,1,13.66,18.8,192.23,192.23,0,0,1,19.37,42.24Z"/><path class="cls-1" d="M146.94,70.39a123.58,123.58,0,0,0-13.19-15.83A149,149,0,0,0,118,41.15,184.45,184.45,0,0,0,100.34,30C94.23,26.7,87.93,23.69,81.52,21A269.88,269.88,0,0,0,41.72,7.83,288,288,0,0,0,.34.58,287.35,287.35,0,0,1,42,6.7,271.61,271.61,0,0,1,82.4,18.79c6.55,2.59,13,5.46,19.31,8.67A185.72,185.72,0,0,1,120,38.29,151.77,151.77,0,0,1,136.6,51.63a129,129,0,0,1,14.16,16.08Z"/><path class="cls-1" d="M172.13,35.29a128.12,128.12,0,0,0-19.78-9.43C145.51,23.23,138.52,21,131.44,19S117.2,15.27,110,13.71,95.56,10.82,88.29,9.59C73.76,7.18,59.13,5.28,44.46,3.8S15.08,1.18.34.58C15.09,1,29.82,1.94,44.52,3.22s29.36,3,44,5.22q10.93,1.71,21.82,3.84c7.24,1.47,14.44,3.12,21.6,5s14.22,4.1,21.18,6.67a131.28,131.28,0,0,1,20.24,9.33Z"/><path class="cls-1" d="M370.06,38.43h6.74l4.11,14.72a35.09,35.09,0,0,1,1.54,9.55h.31a31.91,31.91,0,0,1,1.46-9.55l4.26-14.72H395V66.05h-4.61V51.88c0-3.86.12-6.66.39-10h-.27a71,71,0,0,1-1.9,8.92L384.3,66.05h-4.22l-4.46-15.51a70.76,70.76,0,0,1-1.74-8.68h-.27c.27,3.36.39,5.45.39,9.79v14.4h-3.94Z"/><path class="cls-1" d="M412.09,37.88c7.18,0,11,4.85,11,14.36s-3.86,14.36-11,14.36-11-4.85-11-14.36S404.94,37.88,412.09,37.88Zm0,25c4.18,0,6-3.23,6-10.65s-1.81-10.66-6-10.66-6,3.2-6,10.66S407.94,62.89,412.09,62.89Z"/><path class="cls-1" d="M429.17,38.43h6.28l7.5,17.2a38.82,38.82,0,0,1,2.13,7.14h.27a39.46,39.46,0,0,1-.55-6.58V38.43h3.87V66.05h-6.28L434.9,48.92a40.74,40.74,0,0,1-2.17-7.14h-.28a40.49,40.49,0,0,1,.59,6.59V66.05h-3.87Z"/><path class="cls-1" d="M468.12,58.79h-8.64l-2.13,7.26h-4.1l8.48-27.62h5.17l8.52,27.62h-5.13Zm-.9-3.28-2.09-6.94a29,29,0,0,1-1.23-6.83h-.27a30.69,30.69,0,0,1-1.15,6.83l-2.05,6.94Z"/><path class="cls-1" d="M478.15,58l4.54-1.18c.2,3.86,2,6.15,5.52,6.15,2.69,0,4.54-1.26,4.54-3.87,0-2-1.1-3.27-3.24-4.1l-4.73-1.89c-3.31-1.31-5.68-3.63-5.68-7.74,0-4.89,3.63-7.53,9.19-7.53,5.29,0,9,2.44,9.23,7.53L493,46.52c-.24-3.63-2.06-5-4.7-5.05s-4.3,1.06-4.3,3.47c0,2.17,1.22,3.27,3.39,4.18l4.3,1.74c3.32,1.3,6,3.51,6,7.73,0,5.13-3.63,8-9.59,8C481.94,66.6,478.27,63.52,478.15,58Z"/><path class="cls-1" d="M522.74,38.43V66.05h-4.81V53.42H508.3V66.05h-4.81V38.43h4.81V49.91h9.63V38.43Z"/><path class="cls-1" d="M368.91,110.8c0-9.43,3.87-14.36,10.54-14.36,5.25,0,8.6,3,9,8.09l-3.64,1c-.15-4-2.2-6.24-5.4-6.24-4.38,0-6.67,3.83-6.67,11.56s2.29,11.56,6.67,11.56c3.2,0,5.29-2.44,5.44-6.51l3.63,1c-.35,5.41-3.78,8.37-9,8.37C372.35,125.17,368.91,120.23,368.91,110.8Z"/><path class="cls-1" d="M403.71,99.45c6,0,9.52,4.4,9.52,12.83s-3.49,12.83-9.52,12.83-9.48-4.41-9.48-12.83S397.72,99.45,403.71,99.45Zm0,23.08c4.2,0,6.13-3.27,6.13-10.25S407.91,102,403.71,102s-6.1,3.28-6.1,10.26S399.52,122.53,403.71,122.53Z"/><path class="cls-1" d="M419.4,99.94h4.05l8.14,16.92a22.9,22.9,0,0,1,1.94,5.57h.21a31.1,31.1,0,0,1-.45-5.5v-17h2.57v24.67h-4.05l-8.15-16.88a22.68,22.68,0,0,1-1.94-5.57h-.21a30.3,30.3,0,0,1,.46,5.5v17H419.4Z"/><path class="cls-1" d="M443.26,99.94h4.06l8.14,16.92a23.34,23.34,0,0,1,1.94,5.57h.21a30.3,30.3,0,0,1-.46-5.5v-17h2.57v24.67h-4.05l-8.14-16.88a21.87,21.87,0,0,1-1.94-5.57h-.21a30.3,30.3,0,0,1,.46,5.5v17h-2.58Z"/><path class="cls-1" d="M480.73,122.25v2.36h-13.6V99.94h13.39v2.36H470.3v8.35h9.38v2.4H470.3v9.2Z"/><path class="cls-1" d="M485.28,112.28c0-8.43,3.46-12.83,9.41-12.83,4.69,0,7.69,2.64,8,7.22l-3.25.85c-.14-3.56-2-5.57-4.83-5.57-3.91,0-5.95,3.42-5.95,10.33s2,10.32,5.95,10.32c2.86,0,4.73-2.18,4.87-5.81l3.24.84c-.32,4.83-3.38,7.48-8,7.48C488.35,125.11,485.28,120.7,485.28,112.28Z"/><path class="cls-1" d="M522.44,102.51h-6.81v22.1h-3.17v-22.1h-6.77V99.94h16.75Z"/><path class="cls-1" d="M540.8,122.25v2.36H527.2V99.94h13.39v2.36H530.37v8.35h9.37v2.4h-9.37v9.2Z"/><path class="cls-1" d="M563.4,112.28c0,7.19-2.89,12.33-10.3,12.33h-6.52V99.94h6.52C560.51,99.94,563.4,105.09,563.4,112.28Zm-3.39,0c0-5.92-1.55-10-7.26-10h-3v20h3C558.46,122.25,560,118.2,560,112.28Z"/><path class="cls-1" d="M382.21,163.37H372.9l-2.49,8.09h-3.08l8.8-27.62h3.52l8.79,27.62h-3.78Zm-.79-2.64-2.64-8.6a22.44,22.44,0,0,1-1.19-5.8h-.23a23.89,23.89,0,0,1-1.07,5.8l-2.6,8.6Z"/><path class="cls-1" d="M410.27,146.79V162c0,6.84-2.18,9.94-7.75,9.94-5.89,0-8.36-3.25-8.36-9.94V146.79h3.25v15.58c0,4.79,1.62,6.87,5.14,6.87s5.08-2.22,5.08-6.87V146.79Z"/><path class="cls-1" d="M431.42,149.36h-6.8v22.1h-3.17v-22.1h-6.77v-2.57h16.74Z"/><path class="cls-1" d="M444.43,146.3c6,0,9.52,4.4,9.52,12.83S450.46,172,444.43,172,435,167.55,435,159.13,438.44,146.3,444.43,146.3Zm0,23.08c4.2,0,6.13-3.27,6.13-10.25s-1.93-10.26-6.13-10.26-6.1,3.28-6.1,10.26S440.24,169.38,444.43,169.38Z"/><path class="cls-1" d="M460.12,146.79h4.05l8.14,16.92a22.9,22.9,0,0,1,1.94,5.57h.21a31.1,31.1,0,0,1-.45-5.5v-17h2.57v24.67h-4.05l-8.15-16.88a22.68,22.68,0,0,1-1.94-5.57h-.21a30.3,30.3,0,0,1,.46,5.5v17h-2.57Z"/><path class="cls-1" d="M492.23,146.3c6,0,9.52,4.4,9.52,12.83S498.26,172,492.23,172s-9.48-4.41-9.48-12.83S486.24,146.3,492.23,146.3Zm0,23.08c4.2,0,6.13-3.27,6.13-10.25s-1.93-10.26-6.13-10.26-6.1,3.28-6.1,10.26S488,169.38,492.23,169.38Z"/><path class="cls-1" d="M507.92,146.79h4.76l4,13.92c1.41,4.83,1.66,7,1.66,8.6h.21a28.24,28.24,0,0,1,1.55-8.6l4.23-13.92h4.41v24.67h-3.07V157c0-3.46.11-5.5.29-7.86h-.22a38,38,0,0,1-1.48,6.52l-4.68,15.82h-2.82l-4.83-16.14a41.23,41.23,0,0,1-1.41-6.17h-.22c.18,2.43.25,3.49.25,7.47v14.84h-2.64Z"/><path class="cls-1" d="M544.4,146.3c6,0,9.52,4.4,9.52,12.83S550.43,172,544.4,172s-9.48-4.41-9.48-12.83S538.41,146.3,544.4,146.3Zm0,23.08c4.2,0,6.14-3.27,6.14-10.25s-1.94-10.26-6.14-10.26-6.1,3.28-6.1,10.26S540.21,169.38,544.4,169.38Z"/><path class="cls-1" d="M575.85,146.79V162c0,6.84-2.19,9.94-7.76,9.94-5.89,0-8.35-3.25-8.35-9.94V146.79H563v15.58c0,4.79,1.62,6.87,5.15,6.87s5.07-2.22,5.07-6.87V146.79Z"/><path class="cls-1" d="M581.31,164.38l3.17-.95c.18,3.8,1.84,6,5.4,6,2.82,0,4.72-1.34,4.72-4.08,0-2.19-1.13-3.39-3.24-4.23l-4-1.59c-2.89-1.16-5.14-3.07-5.14-6.8,0-4.23,3.17-6.45,7.68-6.45,4.34,0,7.69,2.08,7.9,6.62l-3.11,1c-.24-3.87-2.18-5.07-4.86-5.07s-4.37,1.16-4.37,3.6,1.27,3.34,3.49,4.22l3.74,1.56c3.45,1.37,5.14,3.52,5.14,6.76,0,4.55-3.07,7-8,7C584.66,172,581.42,169.17,581.31,164.38Z"/><path class="cls-1" d="M367.33,190.69h3.79l4.62,15.75a45.35,45.35,0,0,1,1.85,8.88h.24a38.73,38.73,0,0,1,1.74-8.88l4.57-15.75h3l-8.48,27.62h-3Z"/><path class="cls-1" d="M406.86,216v2.36H393.25V193.64h13.4V196H396.43v8.36h9.37v2.39h-9.37V216Z"/><path class="cls-1" d="M429,193.64v24.67h-3.17V206.47h-10v11.84h-3.17V193.64h3.17v10.47h10V193.64Z"/><path class="cls-1" d="M439.54,193.64v24.67h-3.17V193.64Z"/><path class="cls-1" d="M445.67,206c0-8.43,3.46-12.83,9.41-12.83,4.69,0,7.69,2.64,8,7.22l-3.24.85c-.14-3.56-2-5.57-4.83-5.57-3.91,0-5.95,3.42-5.95,10.33s2,10.33,5.95,10.33c2.86,0,4.73-2.19,4.87-5.82l3.24.85c-.32,4.82-3.38,7.47-8,7.47C448.74,218.81,445.67,214.4,445.67,206Z"/><path class="cls-1" d="M471.9,193.64v22.1h10v2.57H468.73V193.64Z"/><path class="cls-1" d="M499.74,216v2.36h-13.6V193.64h13.39V196H489.31v8.36h9.38v2.39h-9.38V216Z"/><path class="cls-1" d="M279.68,25.07q.9,26.13,1.21,52.28c.14,8.71.17,17.43.26,26.14l.08,26.14-.08,26.14c-.08,8.72-.11,17.43-.26,26.15s-.27,17.42-.45,26.14-.41,17.43-.76,26.14c-.36-8.71-.51-17.43-.77-26.14s-.34-17.43-.45-26.14-.17-17.43-.26-26.15l-.08-26.14.09-26.14c.08-8.71.11-17.43.26-26.14Q278.77,51.21,279.68,25.07Z"/></svg>